<?xml version="1.0" encoding="UTF-8" standalone="no"?>
<!-- Created with Inkscape (http://www.inkscape.org/) -->

<svg
   xmlns:dc="http://purl.org/dc/elements/1.1/"
   xmlns:cc="http://creativecommons.org/ns#"
   xmlns:rdf="http://www.w3.org/1999/02/22-rdf-syntax-ns#"
   xmlns:svg="http://www.w3.org/2000/svg"
   xmlns="http://www.w3.org/2000/svg"
   xmlns:sodipodi="http://sodipodi.sourceforge.net/DTD/sodipodi-0.dtd"
   xmlns:inkscape="http://www.inkscape.org/namespaces/inkscape"
   width="210mm"
   height="297mm"
   viewBox="0 0 210 297"
   version="1.1"
   id="svg8"
   inkscape:version="0.92.3 (2405546, 2018-03-11)"
   sodipodi:docname="cs.svg">
  <sodipodi:namedview
     id="base"
     pagecolor="#ffffff"
     bordercolor="#666666"
     borderopacity="1.0"
     inkscape:pageopacity="0.0"
     inkscape:pageshadow="2"
     inkscape:zoom="3.0114988"
     inkscape:cx="-299.45407"
     inkscape:cy="558.1436"
     inkscape:document-units="mm"
     inkscape:current-layer="layer1"
     showgrid="false"
     showborder="false"
     inkscape:object-paths="true"
     inkscape:snap-nodes="false"
     inkscape:window-width="1853"
     inkscape:window-height="1025"
     inkscape:window-x="67"
     inkscape:window-y="27"
     inkscape:window-maximized="1" />
  <defs
     id="defs2" />
  <metadata
     id="metadata5">
    <rdf:RDF>
      <cc:Work
         rdf:about="">
        <dc:format>image/svg+xml</dc:format>
        <dc:type
           rdf:resource="http://purl.org/dc/dcmitype/StillImage" />
        <dc:title />
      </cc:Work>
    </rdf:RDF>
  </metadata>
  <g
     id="layer1"
     inkscape:groupmode="layer"
     inkscape:label="Layer 1">
    <g
       id="g980">
      <path
         id="text847"
         style="color:#000000;font-style:normal;font-variant:normal;font-weight:bold;font-stretch:normal;font-size:21.04950523px;line-height:1.25;font-family:xscale;-inkscape-font-specification:'xscale, Bold';font-variant-ligatures:normal;font-variant-position:normal;font-variant-caps:normal;font-variant-numeric:normal;font-variant-alternates:normal;font-feature-settings:normal;text-indent:0;text-align:start;text-decoration:none;text-decoration-line:none;text-decoration-style:solid;text-decoration-color:#000000;letter-spacing:0px;word-spacing:0px;text-transform:none;writing-mode:lr-tb;direction:ltr;text-orientation:mixed;dominant-baseline:auto;baseline-shift:baseline;text-anchor:start;white-space:normal;shape-padding:0;clip-rule:nonzero;display:inline;overflow:visible;visibility:visible;opacity:1;isolation:auto;mix-blend-mode:normal;color-interpolation:sRGB;color-interpolation-filters:linearRGB;solid-color:#000000;solid-opacity:1;vector-effect:none;fill:#28170b;fill-opacity:1;fill-rule:nonzero;stroke:none;stroke-width:1.05833328;stroke-linecap:butt;stroke-linejoin:miter;stroke-miterlimit:4;stroke-dasharray:none;stroke-dashoffset:0;stroke-opacity:1;color-rendering:auto;image-rendering:auto;shape-rendering:auto;text-rendering:auto;enable-background:accumulate"
         d="M-71.3337014516 134.938810363C-71.3337014516 134.938810363 -55.5550607826 139.713327732 -55.5550607826 139.713327732C-55.5550607826 139.713327732 -57.4908824519 140.299095683 -57.4908824519 140.299095683C-57.4908824519 140.299095683 -72.063561354 135.889513942 -72.063561354 135.889513942C-72.063561354 135.889513942 -72.1112272221 135.875090613 -72.1112272221 135.875090613C-72.8463429672 135.687432365 -73.5911057611 135.545175248 -74.4854795174 135.469887596C-75.3798623831 135.394618403 -76.5358853851 135.401531979 -77.6440636603 135.56771846C-77.6440636603 135.56771846 -78.1033071695 135.636200196 -78.1033071695 135.636200196C-78.1033071695 135.636200196 -89.927331919 139.213938682 -89.927331919 139.213938682C-91.3182334418 139.634800615 -92.2953305998 140.273288502 -91.9232636998 140.778227961C-91.6254134756 141.182417918 -90.9339828744 141.370469546 -89.9421946854 141.670564632C-89.9421946854 141.670564632 -89.2016118339 141.894650053 -89.2016118339 141.894650053C-89.2016118339 141.894650053 -75.9825344918 145.894476007 -75.9825344918 145.894476007C-75.9825344918 145.894476007 -77.9923681072 146.502639526 -77.9923681072 146.502639526C-77.9923681072 146.502639526 -95.083696709 141.331171871 -95.083696709 141.331171871C-95.961633822 141.065527023 -96.7597121445 140.744690351 -97.4695843749 140.369250353C-97.4695843749 140.369250353 -97.4735345976 140.36388946 -97.4735345976 140.36388946C-97.4735345976 140.36388946 -97.4843683596 140.360611394 -97.4843683596 140.360611394C-98.6947504662 139.751997435 -99.1823517548 139.23290455 -99.1690940515 138.866402481C-99.1558290146 138.499881797 -98.8509227445 138.299545361 -97.9972587511 138.041245252C-97.9972587511 138.041245252 -83.6522715948 133.700764944 -83.6522715948 133.700764944C-81.8473274448 133.154628203 -80.886598677 133.060876036 -79.4351925333 133.17064812C-79.4351925333 133.17064812 -79.4228925979 133.170204432 -79.4228925979 133.170204432C-79.4228925979 133.170204432 -79.4051759976 133.171399789 -79.4051759976 133.171399789C-77.839143526 133.283200172 -74.892398631 133.861658576 -71.3334289611 134.938580402C-71.3334289611 134.938580402 -71.3337014516 134.938810363 -71.3337014516 134.938810363M-67.6905005456 133.836437558C-71.426211253 132.706025751 -74.3970657194 132.016958072 -77.3802519153 131.803365527C-80.305040184 131.583912979 -83.7874516832 132.006999487 -86.5188708349 132.833462214C-86.5188708349 132.833462214 -100.863948881 137.173942989 -100.863948881 137.173942989C-102.715019217 137.734033019 -103.785312938 138.47957354 -103.810738424 139.182814281C-103.836131352 139.884356927 -103.024789109 140.560663577 -101.614158259 141.271252115C-101.609877122 141.273234819 -101.615624929 141.274973994 -101.610207999 141.276613029C-100.775714269 141.716148914 -99.8099684151 142.102004309 -98.7201960871 142.431743231C-98.7201960871 142.431743231 -78.7617139045 148.470700397 -78.7617139045 148.470700397C-78.7617139045 148.470700397 -69.4721000959 145.659701827 -69.4721000959 145.659701827C-69.4721000959 145.659701827 -85.558028325 140.792384808 -85.558028325 140.792384808C-85.558028325 140.792384808 -86.2986052125 140.568299357 -86.2986052125 140.568299357C-87.1311327575 140.316391265 -87.453572447 140.077613068 -87.3773969933 140.180850113C-87.3934683568 140.159324825 -87.6010171701 140.245235962 -87.0603271873 140.081631821C-87.0603271873 140.081631821 -76.4395976342 136.867968925 -76.4395976342 136.867968925C-76.2282963974 136.89483317 -75.9630645699 136.929685195 -75.5575466849 137.033229315C-75.5575466849 137.033229315 -58.2606734861 142.267088734 -58.2606734861 142.267088734C-58.2606734861 142.267088734 -49.0454292604 139.478594092 -49.0454292604 139.478594092C-49.0454292604 139.478594092 -67.6905005456 133.836437558 -67.6905005456 133.836437558" />
      <path
         id="text851"
         style="color:#000000;font-style:normal;font-variant:normal;font-weight:bold;font-stretch:normal;font-size:21.04950523px;line-height:1.25;font-family:xscale;-inkscape-font-specification:'xscale, Bold';font-variant-ligatures:normal;font-variant-position:normal;font-variant-caps:normal;font-variant-numeric:normal;font-variant-alternates:normal;font-feature-settings:normal;text-indent:0;text-align:start;text-decoration:none;text-decoration-line:none;text-decoration-style:solid;text-decoration-color:#000000;letter-spacing:0px;word-spacing:0px;text-transform:none;writing-mode:lr-tb;direction:ltr;text-orientation:mixed;dominant-baseline:auto;baseline-shift:baseline;text-anchor:start;white-space:normal;shape-padding:0;clip-rule:nonzero;display:inline;overflow:visible;visibility:visible;opacity:1;isolation:auto;mix-blend-mode:normal;color-interpolation:sRGB;color-interpolation-filters:linearRGB;solid-color:#000000;solid-opacity:1;vector-effect:none;fill:#28170b;fill-opacity:1;fill-rule:nonzero;stroke:none;stroke-width:1.05833328;stroke-linecap:butt;stroke-linejoin:miter;stroke-miterlimit:4;stroke-dasharray:none;stroke-dashoffset:0;stroke-opacity:1;color-rendering:auto;image-rendering:auto;shape-rendering:auto;text-rendering:auto;enable-background:accumulate"
         d="M-83.2254452429 160.266843729C-83.2254452429 160.266843729 -83.2254452429 179.949307054 -83.2254452429 179.949307054C-83.2254452429 179.949307054 -85.2316575314 179.342222876 -85.2316575314 179.342222876C-85.2316575314 179.342222876 -85.3009659548 162.461368997 -85.3009659548 162.461368997C-85.3009659548 162.461368997 -85.3009659548 162.43556253 -85.3009659548 162.43556253C-85.3294001798 161.52369967 -85.4331851011 160.718938829 -85.8563219121 159.822928516C-86.2794231803 158.926928958 -87.3874693862 157.841211978 -88.4526154551 157.518896474C-88.4526154551 157.518896474 -90.2505825882 156.97482773 -90.2505825882 156.97482773C-90.4286519223 156.920943564 -90.6099556495 156.869306473 -90.8614563698 156.840298613C-90.9879886711 156.824590323 -91.2256632494 156.916863128 -91.4098814847 156.932731237C-92.2569370478 157.028055762 -92.8881057575 157.474837319 -93.1870205479 158.045675772C-93.5115261408 158.664931718 -93.6434609449 159.386589059 -93.7007203655 160.252907922C-93.7007203655 160.252907922 -93.7007203655 160.303230532 -93.7007203655 160.303230532C-93.7007203655 160.303230532 -93.7007203655 161.034069677 -93.7007203655 161.034069677C-93.7007203655 161.034069677 -93.7007203655 168.638654847 -93.7007203655 168.638654847C-93.7007203655 170.754107719 -94.0088762791 172.46682789 -94.5754282124 173.79861475C-94.5754282124 173.79861475 -94.5825367687 173.815818536 -94.5825367687 173.815818536C-94.5825367687 173.815818536 -94.5896453249 173.833022322 -94.5896453249 173.833022322C-94.9783056381 174.832445793 -95.4520909123 175.400851961 -95.866981798 175.64533756C-96.2818726837 175.889855417 -96.5795434768 175.908553849 -97.1304210436 175.741857106C-97.1304210436 175.741857106 -102.593737495 174.08864573 -102.593737495 174.08864573C-103.235960009 173.894307808 -103.619288905 173.639279314 -104.093180808 173.093071908C-104.563020833 172.551542224 -105.085464175 171.648094456 -105.516278227 170.375405932C-106.084927184 168.615298324 -106.397916916 166.519843828 -106.397916916 164.116939173C-106.397916916 164.116939173 -106.397916916 145.045605243 -106.397916916 145.045605243C-106.397916916 145.045605243 -104.329220418 145.671597278 -104.329220418 145.671597278C-104.329220418 145.671597278 -104.329220418 162.443284678 -104.329220418 162.443284678C-104.329220418 162.443284678 -104.300786193 162.590598696 -104.300786193 162.590598696C-104.130180843 163.5708377 -103.912161423 164.40826292 -103.453872801 165.259942472C-102.995619722 166.11161127 -101.997862767 167.155922221 -100.871476486 167.496769146C-100.871476486 167.496769146 -98.9277484066 168.084945467 -98.9277484066 168.084945467C-97.8640240489 168.406830759 -96.7982737527 167.9792964 -96.3800418456 167.369015131C-95.9617743957 166.75871236 -95.8345667815 166.053237475 -95.7760989063 165.19541333C-95.7760989063 165.19541333 -95.7760989063 165.145090719 -95.7760989063 165.145090719C-95.7760989063 165.145090719 -95.7760989063 156.33082741 -95.7760989063 156.33082741C-95.7760989063 153.036083514 -95.0249733099 150.919342091 -93.7559893904 149.753370706C-93.0688408002 149.129786732 -92.6776924924 149.128278017 -92.346753656 149.228420824C-92.346753656 149.228420824 -86.6612948222 150.948852966 -86.6612948222 150.948852966C-86.5113042852 150.994240426 -86.3442532133 151.087371113 -86.1475950046 151.217848096C-85.3229669364 151.856382565 -84.6397991378 152.73946586 -84.0997265764 154.225377643C-83.5540382557 155.726762969 -83.2250542723 157.771992811 -83.2250542723 160.267542683C-83.2250542723 160.267542683 -83.2254452429 160.266843729 -83.2254452429 160.266843729M-79.4628864182 161.405402168C-79.4628864182 158.649884399 -79.7976994177 156.242535631 -80.5735983327 154.107358713C-81.3496749617 151.972128019 -82.6539884057 150.041664842 -84.4610900336 148.659315355C-84.4610900336 148.659315355 -84.5026750876 148.627376777 -84.5026750876 148.627376777C-84.5026750876 148.627376777 -84.551368698 148.593287135 -84.551368698 148.593287135C-85.2128909429 148.12633472 -85.9341961458 147.752711275 -86.6617213355 147.532560578C-86.6617213355 147.532560578 -92.3471801694 145.812128437 -92.3471801694 145.812128437C-94.111097318 145.278363293 -95.6607625811 145.78665762 -96.7691997576 146.792565511C-98.6904647989 148.554284723 -99.5390487016 151.426471002 -99.5390487016 155.190795823C-99.5390487016 155.190795823 -99.5390487016 163.885349384 -99.5390487016 163.885349384C-99.5674829266 164.234971145 -99.606579986 164.308366148 -99.6499421791 164.450341521C-99.6499421791 164.450341521 -100.281679573 164.259176419 -100.281679573 164.259176419C-100.362361687 164.059923023 -100.464369469 163.765829284 -100.566377251 163.227961207C-100.566377251 163.227961207 -100.566377251 143.394271985 -100.566377251 143.394271985C-100.566377251 143.394271985 -110.160155856 140.491173828 -110.160155856 140.491173828C-110.160155856 140.491173828 -110.160155856 162.977348499 -110.160155856 162.977348499C-110.160155856 165.644414602 -109.826053712 168.088903125 -109.098030923 170.342592702C-109.098030923 170.342592702 -109.090922367 170.357647 -109.090922367 170.357647C-109.090922367 170.357647 -109.090922367 170.370550233 -109.090922367 170.370550233C-108.526360829 172.052937063 -107.765425425 173.537392056 -106.668184225 174.802033075C-105.570943024 176.066641836 -104.095739888 177.042138585 -102.593275438 177.496787578C-102.593275438 177.496787578 -97.1299589875 179.149998953 -97.1299589875 179.149998953C-95.6857136136 179.587030727 -94.2670590422 179.48099577 -93.2355009015 178.873082431C-92.2095940631 178.268491257 -91.5224454729 177.25913286 -91.0140770725 175.96035247C-90.288151308 174.247018026 -89.9380904553 172.182139454 -89.9380904553 169.777621894C-89.9380904553 169.777621894 -89.9380904553 162.173036724 -89.9380904553 162.173036724C-89.9380904553 162.173036724 -89.9380904553 161.555617001 -89.9380904553 161.555617001C-89.8982825403 161.023694897 -89.807648448 160.722249806 -89.7369183133 160.545394715C-89.7369183133 160.545394715 -89.1676651286 160.71765196 -89.1676651286 160.71765196C-89.1257246467 160.89582721 -89.0766756086 160.987121214 -89.0635247795 161.398133183C-89.0635247795 161.398133183 -88.9803546713 181.616086848 -88.9803546713 181.616086848C-88.9803546713 181.616086848 -79.462921961 184.496082573 -79.462921961 184.496082573C-79.462921961 184.496082573 -79.4628864182 161.405402168 -79.4628864182 161.405402168" />
      <g
         id="g928">
        <path
           inkscape:connector-curvature="0"
           style="opacity:1;fill:#00ccff;fill-opacity:1;stroke:none;stroke-width:1.05833328;stroke-miterlimit:4;stroke-dasharray:none;stroke-opacity:1"
           d="M-59.400346901 144.064090383C-59.400346901 144.064090383 -49.6002606514 141.098751261 -49.6002606514 141.098751261C-48.3609754431 140.723764672 -47.3632820591 141.553554972 -47.3632820591 142.959278763C-47.3632820591 142.959278763 -47.3632820591 154.075536991 -47.3632820591 154.075536991C-47.3632820591 155.481260782 -48.3609754431 156.914831483 -49.6002606514 157.289818072C-49.6002606514 157.289818072 -59.400346901 160.255157193 -59.400346901 160.255157193C-60.6396229737 160.630141018 -61.6373163577 159.800340355 -61.6373163577 158.394616564C-61.6373163577 158.394616564 -61.6373163577 147.278358336 -61.6373163577 147.278358336C-61.6373163577 145.872634545 -60.6396229737 144.439074207 -59.400346901 144.064090383C-59.400346901 144.064090383 -59.400346901 144.064090383 -59.400346901 144.064090383"
           id="path914" />
        <g
           id="g921">
          <path
             style="opacity:1;fill:#28170b;fill-opacity:1;stroke:none;stroke-width:1.05833328;stroke-miterlimit:4;stroke-dasharray:none;stroke-opacity:1"
             d="M-75.5917862013 148.963344039C-75.5917862013 148.963344039 -65.7916999517 145.998004918 -65.7916999517 145.998004918C-64.5524147434 145.623018329 -63.5547213594 146.452808629 -63.5547213594 147.85853242C-63.5547213594 147.85853242 -63.5547213594 158.974790648 -63.5547213594 158.974790648C-63.5547213594 160.380514439 -64.5524147434 161.81408514 -65.7916999517 162.189071728C-65.7916999517 162.189071728 -75.5917862013 165.15441085 -75.5917862013 165.15441085C-76.831062274 165.529394674 -77.828755658 164.699594012 -77.828755658 163.293870221C-77.828755658 163.293870221 -77.828755658 152.177611993 -77.828755658 152.177611993C-77.828755658 150.771888202 -76.831062274 149.338327864 -75.5917862013 148.963344039C-75.5917862013 148.963344039 -75.5917862013 148.963344039 -75.5917862013 148.963344039"
             id="rect909" />
          <path
             id="path912"
             d="M-75.8255305165 167.628155226C-75.8255305165 167.628155226 -66.025444267 164.662816105 -66.025444267 164.662816105C-64.7861590586 164.287829516 -63.7884656746 165.117619816 -63.7884656746 166.523343607C-63.7884656746 166.523343607 -63.7884656746 177.639601835 -63.7884656746 177.639601835C-63.7884656746 179.045325626 -64.7861590586 180.478896327 -66.025444267 180.853882915C-66.025444267 180.853882915 -75.8255305165 183.819222037 -75.8255305165 183.819222037C-77.0648065892 184.194205861 -78.0624999732 183.364405199 -78.0624999732 181.958681408C-78.0624999732 181.958681408 -78.0624999732 170.84242318 -78.0624999732 170.84242318C-78.0624999732 169.436699389 -77.0648065892 168.003139051 -75.8255305165 167.628155226C-75.8255305165 167.628155226 -75.8255305165 167.628155226 -75.8255305165 167.628155226"
             style="opacity:1;fill:#28170b;fill-opacity:1;stroke:none;stroke-width:1.05833328;stroke-miterlimit:4;stroke-dasharray:none;stroke-opacity:1"
             inkscape:connector-curvature="0" />
          <path
             inkscape:connector-curvature="0"
             style="opacity:1;fill:#28170b;fill-opacity:1;stroke:none;stroke-width:1.05833328;stroke-miterlimit:4;stroke-dasharray:none;stroke-opacity:1"
             d="M-59.6340912162 162.72890157C-59.6340912162 162.72890157 -49.8340049667 159.763562448 -49.8340049667 159.763562448C-48.5947197583 159.388575859 -47.5970263743 160.218366159 -47.5970263743 161.62408995C-47.5970263743 161.62408995 -47.5970263743 172.740348178 -47.5970263743 172.740348178C-47.5970263743 174.146071969 -48.5947197583 175.57964267 -49.8340049667 175.954629259C-49.8340049667 175.954629259 -59.6340912162 178.91996838 -59.6340912162 178.91996838C-60.8733672889 179.294952205 -61.8710606729 178.465151542 -61.8710606729 177.059427751C-61.8710606729 177.059427751 -61.8710606729 165.943169523 -61.8710606729 165.943169523C-61.8710606729 164.537445732 -60.8733672889 163.103885394 -59.6340912162 162.72890157C-59.6340912162 162.72890157 -59.6340912162 162.72890157 -59.6340912162 162.72890157"
             id="path916" />
        </g>
      </g>
    </g>
  </g>
</svg>
