<?xml version="1.0" encoding="UTF-8" standalone="no"?>
<!-- Created with Inkscape (http://www.inkscape.org/) -->

<svg
   xmlns:dc="http://purl.org/dc/elements/1.1/"
   xmlns:cc="http://creativecommons.org/ns#"
   xmlns:rdf="http://www.w3.org/1999/02/22-rdf-syntax-ns#"
   xmlns:svg="http://www.w3.org/2000/svg"
   xmlns="http://www.w3.org/2000/svg"
   xmlns:sodipodi="http://sodipodi.sourceforge.net/DTD/sodipodi-0.dtd"
   xmlns:inkscape="http://www.inkscape.org/namespaces/inkscape"
   width="210mm"
   height="297mm"
   viewBox="0 0 210 297"
   version="1.1"
   id="svg8"
   inkscape:version="0.92.3 (2405546, 2018-03-11)"
   sodipodi:docname="d.svg">
  <defs
     id="defs2" />
  <sodipodi:namedview
     id="base"
     pagecolor="#ffffff"
     bordercolor="#666666"
     borderopacity="1.0"
     inkscape:pageopacity="0.0"
     inkscape:pageshadow="2"
     inkscape:zoom="1"
     inkscape:cx="-361.5"
     inkscape:cy="576"
     inkscape:document-units="mm"
     inkscape:current-layer="layer1"
     showgrid="false"
     showborder="false"
     inkscape:object-paths="false"
     inkscape:snap-others="true"
     inkscape:object-nodes="false"
     inkscape:snap-nodes="true"
     inkscape:snap-global="true"
     inkscape:snap-bbox="true"
     inkscape:window-width="1853"
     inkscape:window-height="1025"
     inkscape:window-x="67"
     inkscape:window-y="27"
     inkscape:window-maximized="1" />
  <metadata
     id="metadata5">
    <rdf:RDF>
      <cc:Work
         rdf:about="">
        <dc:format>image/svg+xml</dc:format>
        <dc:type
           rdf:resource="http://purl.org/dc/dcmitype/StillImage" />
        <dc:title></dc:title>
      </cc:Work>
    </rdf:RDF>
  </metadata>
  <g
     inkscape:label="Layer 1"
     inkscape:groupmode="layer"
     id="layer1">
    <g
       id="g847">
      <g
         id="text817"
         style="font-style:normal;font-variant:normal;font-weight:bold;font-stretch:normal;font-size:184.14382935px;line-height:1.25;font-family:'Myriad Pro';-inkscape-font-specification:'Myriad Pro Bold';letter-spacing:0px;word-spacing:0px;fill:#000000;fill-opacity:1;stroke:none;stroke-width:4.60359573"
         aria-label="D">
        <g
           id="g841">
          <path
             style="stroke-width:17.39941788;fill:#0b1728;fill-opacity:1"
             d="M -344.16602 186.35938 C -397.06024 186.35938 -447.86712 189.83906 -486.8418 196.79883 L -486.8418 592.51953 L -477.95703 586.01953 L -477.95703 587.00977 L -226.86133 403.31836 L -381.05273 504.0332 L -381.05273 271.96484 C -372.00504 269.87691 -355.99653 267.78906 -333.0293 267.78906 C -255.64436 267.78906 -202.95355 304.33389 -188.26172 374.0918 L -94.300781 305.35156 C -108.00883 276.94989 -127.51673 254.19835 -151.38086 236.4707 C -195.92337 203.06383 -254.38502 186.35938 -344.16602 186.35938 z "
             transform="scale(0.26458333)"
             id="path836" />
        </g>
        <path
           id="path819"
           transform="scale(0.26458333)"
           d="M 49 212.51953 L -486.8418 604.51953 L -486.8418 644.83984 L -486.8418 656.83984 C -461.09067 660.31973 -421.41964 663.79883 -366.4375 663.79883 C -274.56858 663.79883 -198.70731 644.3126 -149.29297 603.25 C -104.75046 564.97129 -72.039062 503.02906 -72.039062 413.24805 C -72.039062 379.51493 -77.062888 350.12206 -86.232422 324.6543 L 49 212.51953 z M -184.33594 406.00195 C -184.17782 409.51464 -184.0918 413.08738 -184.0918 416.72852 C -184.0918 528.78076 -247.42526 581.67452 -344.16602 580.97852 C -356.6936 580.97852 -372.00504 580.97855 -381.05273 578.89062 L -381.05273 569.11914 L -184.33594 406.00195 z "
           style="stroke-width:17.39941788;fill:#ff0000" />
      </g>
    </g>
    <path
       sodipodi:type="star"
       style="opacity:1;fill:#0b1728;fill-opacity:1;stroke:#000000;stroke-width:0;stroke-miterlimit:4;stroke-dasharray:none;stroke-opacity:1"
       id="path849"
       sodipodi:sides="5"
       sodipodi:cx="-14.816653"
       sodipodi:cy="58.345833"
       sodipodi:r1="13.029218"
       sodipodi:r2="4.8859568"
       sodipodi:arg1="0.50907089"
       sodipodi:arg2="1.1373894"
       inkscape:flatsided="false"
       inkscape:rounded="0"
       inkscape:randomized="0"
       d="m -3.4395703,64.695833 -9.3251517,-1.915798 -4.575428,8.348305 -1.059599,-9.46076 -9.353594,-1.771723 8.670283,-3.931274 -1.20541,-9.44329 6.418128,7.0311 8.6086094,-4.064551 -4.7036619,8.276732 z"
       inkscape:transform-center-x="-0.081343038"
       inkscape:transform-center-y="1.1665649"
       transform="rotate(-12.325216,-14.816656,58.345833)" />
  </g>
</svg>
